<svg xmlns="http://www.w3.org/2000/svg" xmlns:xlink="http://www.w3.org/1999/xlink" width="512" zoomAndPan="magnify" viewBox="0 0 384 383.999986" height="512" preserveAspectRatio="xMidYMid meet" version="1.0"><defs><clipPath id="ffbd516da8"><path d="M 73.34375 38.398438 L 310.34375 38.398438 L 310.34375 345.898438 L 73.34375 345.898438 Z M 73.34375 38.398438 " clip-rule="nonzero"/></clipPath></defs><g clip-path="url(#ffbd516da8)"><path fill="#000000" d="M 108.195312 38.449219 C 89.027344 38.449219 73.34375 54.167969 73.34375 73.378906 C 73.34375 90.191406 85.378906 104.382812 101.226562 107.65625 L 101.226562 276.644531 C 85.378906 279.917969 73.34375 294.109375 73.34375 310.921875 C 73.34375 330.132812 89.027344 345.851562 108.195312 345.851562 C 127.367188 345.851562 143.050781 330.132812 143.050781 310.921875 C 143.050781 294.191406 131.125 280 115.386719 276.644531 C 116.691406 252.898438 125.242188 240.753906 138.039062 232.539062 C 151.980469 223.617188 172.019531 219.851562 192.933594 216.382812 C 213.84375 212.917969 235.628906 209.644531 253.054688 198.480469 C 269.253906 188.109375 280.472656 170.207031 282.027344 142.589844 C 298.0625 139.480469 310.34375 125.261719 310.34375 108.3125 C 310.34375 89.097656 294.660156 73.378906 275.492188 73.378906 C 256.320312 73.378906 240.636719 89.097656 240.636719 108.3125 C 240.636719 125.042969 252.5625 139.234375 268.300781 142.589844 C 266.996094 166.304688 258.445312 178.503906 245.648438 186.691406 C 231.707031 195.589844 211.667969 199.164062 190.753906 202.628906 C 169.84375 206.09375 148.058594 209.589844 130.632812 220.75 C 124.753906 224.515625 119.550781 229.347656 115.167969 235.160156 L 115.167969 107.65625 C 131.015625 104.382812 143.050781 90.191406 143.050781 73.378906 C 143.050781 54.167969 127.367188 38.449219 108.195312 38.449219 Z M 108.195312 52.421875 C 119.824219 52.421875 129.109375 61.726562 129.109375 73.378906 C 129.109375 85.03125 119.824219 94.339844 108.195312 94.339844 C 96.570312 94.339844 87.285156 85.03125 87.285156 73.378906 C 87.285156 61.726562 96.570312 52.421875 108.195312 52.421875 Z M 275.492188 87.351562 C 287.117188 87.351562 296.402344 96.660156 296.402344 108.3125 C 296.402344 119.964844 287.117188 129.273438 275.492188 129.273438 C 263.863281 129.273438 254.578125 119.964844 254.578125 108.3125 C 254.578125 96.660156 263.863281 87.351562 275.492188 87.351562 Z M 108.195312 289.960938 C 119.824219 289.960938 129.109375 299.265625 129.109375 310.921875 C 129.109375 322.574219 119.824219 331.878906 108.195312 331.878906 C 96.570312 331.878906 87.285156 322.574219 87.285156 310.921875 C 87.285156 299.265625 96.570312 289.960938 108.195312 289.960938 Z M 108.195312 289.960938 " fill-opacity="1" fill-rule="nonzero"/></g></svg>